<svg width="24" height="24" viewBox="0 0 24 24" fill="none" xmlns="http://www.w3.org/2000/svg">
<g opacity="0.8">
<path d="M4 9.7C4 8.1912 4 7.4376 4.4688 6.9688C4.9376 6.5 5.6912 6.5 7.2 6.5H16.8C18.3088 6.5 19.0624 6.5 19.5312 6.9688C20 7.4376 20 8.1912 20 9.7C20 10.0768 20 10.2656 19.8832 10.3832C19.7656 10.5 19.576 10.5 19.2 10.5H4.8C4.4232 10.5 4.2344 10.5 4.1168 10.3832C4 10.2656 4 10.076 4 9.7ZM4 16.9C4 18.4088 4 19.1624 4.4688 19.6312C4.9376 20.1 5.6912 20.1 7.2 20.1H16.8C18.3088 20.1 19.0624 20.1 19.5312 19.6312C20 19.1624 20 18.4088 20 16.9V12.9C20 12.5232 20 12.3344 19.8832 12.2168C19.7656 12.1 19.576 12.1 19.2 12.1H4.8C4.4232 12.1 4.2344 12.1 4.1168 12.2168C4 12.3344 4 12.524 4 12.9V16.9Z" fill="#222222"/>
<path d="M8 4.8999V7.2999M16 4.8999V7.2999" stroke="#222222" stroke-width="2" stroke-linecap="round"/>
</g>
</svg>
