<svg width="42" height="42" viewBox="0 0 42 42" fill="none" xmlns="http://www.w3.org/2000/svg">
<circle cx="21" cy="21" r="20.5" fill="white" stroke="#EAECEF"/>
<path d="M21.0014 20.5097C23.7065 20.5097 25.8993 18.3168 25.8993 15.6118C25.8993 12.9067 23.7065 10.7139 21.0014 10.7139C18.2964 10.7139 16.1035 12.9067 16.1035 15.6118C16.1035 18.3168 18.2964 20.5097 21.0014 20.5097Z" fill="#B9BED7"/>
<path d="M22.0388 21.4902H19.9621C18.7439 21.4941 17.5384 21.7379 16.4143 22.2076C15.2903 22.6774 14.2698 23.3639 13.4112 24.2281C12.5525 25.0922 11.8724 26.117 11.4098 27.244C10.9471 28.371 10.711 29.578 10.7149 30.7962C10.7149 30.9261 10.7665 31.0507 10.8583 31.1426C10.9502 31.2344 11.0748 31.286 11.2047 31.286H30.7963C30.9322 31.2737 31.0584 31.2101 31.1493 31.1083C31.2402 31.0065 31.2891 30.8739 31.2861 30.7375C31.2809 28.2865 30.305 25.9375 28.5719 24.2044C26.8388 22.4713 24.4898 21.4954 22.0388 21.4902Z" fill="#B9BED7"/>
</svg>
